<svg width="500" height="500" viewBox="0 0 500 500" fill="none" xmlns="http://www.w3.org/2000/svg">
<path fill-rule="evenodd" clip-rule="evenodd" d="M140.845 0C63.0584 0 -4.23855e-05 63.0585 -4.23855e-05 140.845V359.155C-4.23855e-05 436.941 63.0584 500 140.845 500H359.155C436.941 500 500 436.941 500 359.155V140.845C500 63.0585 436.941 0 359.155 0H140.845ZM225.906 314.773H141.772V269.841H217.185V225.657H141.772V183.05H224.452V138.284H95.2624V359.539H225.906V314.773ZM400.979 167.644C382.181 148.071 358.733 138.284 330.633 138.284H261.034V359.539H330.633C358.733 359.539 382.181 349.849 400.979 330.47C419.971 310.897 429.466 280.86 429.466 248.912C429.466 216.964 419.971 187.023 400.979 167.644ZM369.585 299.367C359.701 309.638 346.717 314.773 330.633 314.773H307.544V183.05H330.633C346.717 183.05 359.701 188.283 369.585 198.747C379.662 209.018 384.701 228.591 384.701 248.912C384.701 269.232 379.662 288.902 369.585 299.367Z" fill="#4FC87B"/>
</svg>
